<?xml version="1.0" standalone="no"?>
<!DOCTYPE svg PUBLIC "-//W3C//DTD SVG 20010904//EN"
 "http://www.w3.org/TR/2001/REC-SVG-20010904/DTD/svg10.dtd">
<svg version="1.0" xmlns="http://www.w3.org/2000/svg"
 width="533.000000pt" height="198.000000pt" viewBox="0 0 533.000000 198.000000"
 preserveAspectRatio="xMidYMid meet">
<metadata>
Created by potrace 1.16, written by Peter Selinger 2001-2019
</metadata>
<g transform="translate(0.000000,198.000000) scale(0.100000,-0.100000)"
fill="#000000" stroke="none">
<path d="M1040 1285 c0 -338 -2 -615 -4 -615 -3 0 -40 22 -83 49 l-78 48 -3
361 -2 360 -48 30 c-187 116 -262 162 -267 162 -3 0 -5 -133 -5 -295 l0 -295
35 0 35 0 0 136 0 136 -30 28 c-56 52 -24 140 50 140 70 0 105 -86 55 -136
l-25 -25 0 -234 0 -235 85 0 85 0 0 -65 c0 -52 3 -65 16 -65 8 0 13 -4 10 -9
-5 -7 603 -391 619 -391 21 0 -6 24 -65 59 l-70 42 0 84 0 85 -30 0 -30 0 0
85 c0 80 -1 85 -21 85 -12 0 -34 -13 -49 -30 -52 -56 -140 -24 -140 50 0 74
88 106 140 50 21 -23 37 -30 64 -30 l36 0 0 -85 c0 -69 3 -85 15 -85 13 0 15
61 15 488 l0 487 -155 123 -155 122 0 -615z m233 345 l37 -25 0 -84 0 -83 -27
18 c-76 48 -72 42 -73 132 0 64 3 81 13 75 7 -4 29 -19 50 -33z m-480 -210
l37 -25 0 -84 0 -83 -27 18 c-76 48 -72 42 -73 132 0 64 3 81 13 75 7 -4 29
-19 50 -33z m480 -20 l37 -25 0 -84 0 -83 -27 18 c-76 48 -72 42 -73 132 0 64
3 81 13 75 7 -4 29 -19 50 -33z m-480 -190 l37 -25 0 -84 0 -83 -27 18 c-76
48 -72 42 -73 132 0 64 3 81 13 75 7 -4 29 -19 50 -33z m480 -30 l37 -25 0
-84 0 -83 -27 18 c-76 48 -72 42 -73 132 0 64 3 81 13 75 7 -4 29 -19 50 -33z"/>
<path d="M1540 1355 l0 -305 95 0 95 0 2 166 3 166 115 -166 115 -166 123 0
122 0 0 305 0 305 -90 0 -90 0 0 -177 0 -176 -122 176 -123 176 -122 1 -123 0
0 -305z"/>
<path d="M2280 1355 l0 -305 360 0 360 0 0 90 0 90 -270 0 -270 0 0 30 0 30
270 0 270 0 0 60 0 60 -270 0 -270 0 0 30 0 30 270 0 270 0 0 95 0 95 -360 0
-360 0 0 -305z"/>
<path d="M3050 1384 l0 -276 29 -29 29 -29 277 0 277 0 29 29 29 29 0 276 0
276 -90 0 -90 0 0 -215 0 -215 -155 0 -155 0 0 215 0 215 -90 0 -90 0 0 -276z"/>
<path d="M3780 1356 l0 -306 90 0 90 0 0 210 0 210 155 0 155 0 0 -60 0 -60
-120 0 -120 0 0 -90 0 -90 53 0 52 0 34 -60 35 -60 123 0 122 0 -34 57 c-33
54 -34 58 -15 65 46 17 51 43 48 248 l-3 193 -28 21 c-27 20 -41 21 -333 24
l-304 3 0 -305z"/>
<path d="M4584 1649 c-17 -5 -39 -18 -50 -30 -18 -20 -19 -39 -19 -271 l0
-250 28 -24 28 -24 308 0 308 0 27 25 26 24 0 246 c0 276 -2 286 -69 305 -44
12 -544 12 -587 -1z m476 -299 l0 -120 -185 0 -185 0 0 120 0 120 185 0 185 0
0 -120z"/>
<path d="M550 889 l0 -160 29 20 c24 18 44 21 120 21 l91 0 0 40 0 40 -85 0
-85 0 0 100 0 100 -35 0 -35 0 0 -161z"/>
<path d="M5121 824 l-73 -77 -73 73 c-99 98 -105 95 -105 -54 0 -122 4 -146
26 -146 10 0 14 24 16 101 3 100 3 100 23 82 11 -10 42 -38 68 -62 l48 -44 64
63 64 64 3 -100 c2 -80 6 -99 18 -99 13 0 15 22 15 134 0 87 -4 136 -11 138
-6 2 -43 -31 -83 -73z"/>
<path d="M1556 869 c-32 -25 -35 -70 -6 -99 18 -18 33 -20 133 -20 115 0 157
-12 157 -45 0 -36 -29 -45 -146 -45 -114 0 -115 0 -124 26 -6 14 -16 24 -23
22 -21 -8 -19 -45 4 -67 21 -19 35 -21 147 -21 123 0 124 0 153 29 36 36 37
70 5 108 -24 27 -27 28 -153 33 l-128 5 0 25 0 25 128 3 c123 2 129 2 134 -18
7 -25 36 -23 41 2 2 9 -6 26 -17 37 -19 19 -33 21 -150 21 -115 0 -131 -2
-155 -21z"/>
<path d="M2200 877 c0 -8 33 -40 74 -73 l74 -59 4 -60 c2 -45 7 -60 18 -60 11
0 16 14 18 56 l3 57 80 67 c60 50 78 70 70 78 -14 14 -34 3 -116 -62 l-55 -43
-69 56 c-69 55 -101 69 -101 43z"/>
<path d="M2889 872 c-28 -23 -30 -73 -4 -102 16 -18 31 -20 132 -20 124 0 153
-8 153 -44 0 -41 -20 -47 -141 -44 -107 3 -115 4 -124 26 -18 42 -51 19 -34
-25 14 -38 42 -45 176 -41 117 3 126 4 144 27 21 25 25 71 9 101 -15 29 -65
40 -175 40 -79 0 -105 3 -115 15 -10 12 -10 18 0 30 10 12 38 15 135 15 114 0
123 -1 128 -20 7 -29 37 -26 37 3 0 49 -25 57 -167 57 -112 0 -134 -3 -154
-18z"/>
<path d="M3535 880 c-13 -21 9 -30 76 -30 l69 0 0 -99 c0 -106 5 -131 25 -131
20 0 25 25 25 130 l0 99 72 3 c60 2 73 6 76 21 3 16 -10 17 -167 17 -102 0
-172 -4 -176 -10z"/>
<path d="M4211 776 c-7 -9 -11 -41 -9 -83 l3 -68 170 0 c154 0 170 2 173 18 3
16 -9 17 -152 17 l-156 0 0 45 0 45 140 0 c113 0 140 3 140 14 0 22 -24 26
-165 26 -102 0 -135 -3 -144 -14z"/>
<path d="M506 289 c-20 -16 -26 -29 -26 -60 0 -55 30 -83 79 -75 44 7 61 28
61 78 0 70 -59 100 -114 57z"/>
<path d="M1706 289 c-20 -16 -26 -29 -26 -60 0 -55 30 -83 79 -75 44 7 61 28
61 78 0 70 -59 100 -114 57z"/>
<path d="M2434 301 c-2 -2 -4 -40 -4 -83 l0 -78 85 0 86 0 -3 81 -3 81 -78 1
c-43 1 -81 0 -83 -2z"/>
<path d="M3026 289 c-20 -16 -26 -29 -26 -60 0 -55 30 -83 79 -75 44 7 61 28
61 78 0 70 -59 100 -114 57z"/>
<path d="M4666 289 c-20 -16 -26 -29 -26 -60 0 -55 30 -83 79 -75 44 7 61 28
61 78 0 70 -59 100 -114 57z"/>
</g>
</svg>
