<?xml version="1.0" encoding="UTF-8" standalone="no"?>
<svg
   xmlns:dc="http://purl.org/dc/elements/1.1/"
   xmlns:cc="http://creativecommons.org/ns#"
   xmlns:rdf="http://www.w3.org/1999/02/22-rdf-syntax-ns#"
   xmlns:svg="http://www.w3.org/2000/svg"
   xmlns="http://www.w3.org/2000/svg"
   id="svg60"
   version="1.1"
   viewBox="0 0 210 297"
   height="297mm"
   width="210mm">
  <defs
     id="defs54" />
  <metadata
     id="metadata57">
    <rdf:RDF>
      <cc:Work
         rdf:about="">
        <dc:format>image/svg+xml</dc:format>
        <dc:type
           rdf:resource="http://purl.org/dc/dcmitype/StillImage" />
        <dc:title></dc:title>
      </cc:Work>
    </rdf:RDF>
  </metadata>
  <g
     id="layer1">
    <g
       transform="matrix(0.26458333,0,0,0.26458333,-419.62273,-1378.3331)"
       id="Layer1002">
      <g
         id="Layer1003">
        <path
           d="m 426.9031,5856.5115 c -2.435,1.2982 -2.7008,4.0584 -11.2054,7.1211 -6.0522,2.1796 -10.2622,1.9313 -16.7855,2.6554 1.6262,3.4171 3.0853,2.4702 2.6886,8.6037 -2.7466,42.4578 -31.8565,95.4387 -61.1706,123.0158 -65.3808,61.5063 -127.8442,55.7131 -136.5382,59.4682 h -20.328 c -3.3746,-1.3936 -16.7936,-1.6973 -22.0146,-2.4835 -7.1421,-1.0757 -14.032,-2.3872 -20.8161,-4.09 -13.0643,-3.2789 -25.2127,-7.6759 -36.3276,-12.9252 -22.4603,-10.6079 -44.0616,-26.0435 -57.9914,-40.5378 -10.0101,-10.4156 -14.3928,-14.5418 -22.8816,-26.4199 -40.7844,-57.0678 -36.6663,-101.0336 -39.9656,-108.7552 v -25.843 c 2.8481,-6.2745 0.9927,-76.4959 61.3165,-136.744 15.5482,-15.5287 33.8315,-29.221 58.1195,-41.126 17.1068,-8.3852 37.0347,-14.7014 56.2643,-17.9234 5.3276,-0.8928 18.0813,-1.3304 21.6787,-2.9539 h 21.6574 c 3.5518,1.5422 18.1604,2.0996 23.6648,2.9802 7.3026,1.1682 14.1115,2.5429 21.2676,4.4221 13.2998,3.4924 26.584,8.2864 37.9933,13.9612 12.2846,6.1101 22.4019,12.2266 32.4183,19.6523 5.7656,4.2744 24.6497,20.1351 26.1483,24.4505 -0.3993,-0.5466 -5.4238,-4.1481 -6.5971,-5.1439 -16.3503,-13.8773 -34.2123,-24.2028 -55.0766,-31.6767 -103.6395,-37.1252 -216.3513,26.0542 -240.6973,132.1519 -6.363,27.7297 -5.4303,61.5423 2.2851,88.2062 7.7139,26.6587 19.0466,47.1749 33.2863,65.2633 6.9647,8.8472 15.5255,17.937 24.203,25.0752 7.3689,6.0616 20.9442,17.2845 29.4345,20.4007 1.0438,-101.7744 72.2561,-107.3545 106.1325,-147.1643 5.6401,-6.628 11.8967,-16.7702 14.0082,-28.3949 1.7694,-9.7406 0.9479,-28.4654 -5.3449,-34.3207 -0.598,13.3883 0.465,20.6926 -4.8302,32.5353 -16.0082,35.8019 -53.4712,20.4277 -82.9466,27.3967 -7.8443,1.8546 -21.9045,7.42 -23.5571,13.8922 -1.1856,4.6441 0.4149,3.1431 -2.5465,7.1795 -6.7132,9.1495 -21.6872,14.342 -33.2269,10.046 -6.6732,-2.4842 -7.5737,-2.082 -15.1514,-2.6231 -16.4714,-1.1764 -22.6812,-22.8891 -19.8589,-34.052 1.6969,-6.7117 3.5779,-7.1588 7.9594,-10.7614 6.5666,-5.3996 12.3247,-12.525 17.5825,-19.1995 7.3935,-9.386 15.9825,-22.5994 23.9001,-31.6217 3.3733,-3.8438 5.5882,-4.3227 6.7348,-11.2304 0.9187,-5.5357 0.0826,-11.7533 2.2783,-16.5251 3.342,-7.2623 15.5139,-12.3617 20.6281,-16.8361 3.4694,-3.0357 3.9112,-6.6126 8.2355,-9.8147 4.8101,-3.5621 7.6661,-3.7899 4.9899,-11.4544 -3.6142,-10.3509 2.9136,-19.2033 7.0325,-27.881 3.7059,-7.8077 3.5741,-11.9166 4.4942,-13.5818 14.9711,8.9645 24.5713,32.1891 21.0542,53.3755 6.1034,-3.3273 5.4071,-18.7958 8.3315,-25.3417 1.5918,-3.5631 5.0662,-3.981 7.1763,-10.0972 2.0852,-6.0438 0.7001,-9.7477 0.9908,-15.6933 11.4229,4.7202 12.3139,13.9882 15.332,27.4711 16.1171,-3.0313 24.1408,-8.4234 42.0408,-2.4672 15.7397,5.2372 28.306,3.272 38.3202,-5.5447 1.0954,9.6832 -7.7707,18.0538 -9.4402,22.2127 30.2432,4.8252 34.9373,14.2853 52.1119,30.0255 12.2757,11.2506 16.9391,10.2439 29.2942,11.701 10.0567,1.1861 22.0427,8.6855 23.036,17.6771 -8.5748,0.1832 -21.8608,-2.1242 -28.0387,2.9026 1.2283,1.5883 8.4312,5.2033 10.6631,7.0117 28.0812,22.7538 12.2579,47.4603 37.6461,64.3198 8.5245,5.6608 11.053,2.2669 10.9377,6.0532 z"
           style="fill:#000200;fill-rule:evenodd;stroke:#000200;stroke-width:0.21600001;stroke-linecap:butt;stroke-linejoin:miter;stroke-dasharray:none"
           id="path4993" />
        <path
           d="m 386.4014,5868.5698 c -3.3406,-5.0758 -14.4718,-22.5036 -18.1523,-23.9548 -1.952,55.6086 -7.1496,44.6606 -33.9206,74.5693 l -16.6497,19.9901 c 4.2596,-35.5957 32.3109,-36.2807 37.3997,-74.2481 1.9424,-14.4903 -2.9191,-35.1838 -7.6568,-47.0907 -3.936,-9.8917 -15.2468,-30.4156 -21.1869,-35.0095 0.6666,3.4899 3.5361,9.5516 4.8356,13.1955 1.6564,4.6447 3.2158,9.2843 4.4606,14.2826 2.712,10.8889 4.0183,21.3085 2.7697,33.1751 -1.9294,18.3381 -13.1053,39.3616 -29.2224,44.5857 1.3695,-3.106 4.1447,-7.0213 6.0278,-10.2955 8.3862,-14.5798 10.2258,-24.962 7.4181,-42.5943 -1.5366,-9.6492 -4.3774,-18.352 -7.9356,-26.1436 -2.5653,-5.6175 -9.5929,-18.3429 -13.2895,-21.2601 -2.0092,2.0226 -3.4288,5.5414 -5.565,8.1289 -6.1134,7.4045 -15.595,15.9286 -26.3124,17.3324 5.079,-5.0517 11.4552,-7.375 16.6298,-20.0204 4.207,-10.2807 5.6604,-20.7819 0.4193,-31.0233 -4.6929,-9.1704 -11.0545,-11.7213 -22.2221,-15.2637 -5.7538,-1.8251 -22.3126,-5.8931 -26.2067,-11.419 44.4314,-3.6553 83.7481,16.1241 102.8861,38.1713 10.6623,12.2829 19.3917,25.5051 27.7456,42.3206 4.3398,8.7355 18.283,42.7359 17.7277,52.5715 z"
           style="fill:#fafafa;fill-rule:evenodd"
           id="path4995" />
        <path
           d="m 200.8042,6021.0696 c -8.148,-0.6296 -9.5435,-0.962 -16.1859,-3.519 0.8441,-15.1335 2.5506,-37.5012 7.8312,-50.1062 12.7838,-30.5161 47.2569,-60.5726 66.1205,-92.0906 1.7637,-2.9473 3.1416,-6.6292 5.2867,-9.1702 1.9028,14.2503 -9.909,29.8772 -15.6744,38.3243 -27.3775,40.1121 -47.0605,59.8014 -47.3781,116.5617 z"
           style="fill:#fafafa;fill-rule:evenodd"
           id="path4997" />
        <path
           d="m 162.5465,5759.7289 c -4.6122,6.0614 -21.4497,12.2327 -32.6266,12.0777 -0.3656,-8.4777 2.5606,-11.9414 10.707,-12.9143 6.2332,-0.7444 15.4964,0.37 21.9196,0.8366 z"
           style="fill:#fafafa;fill-rule:evenodd"
           id="path4999" />
        <path
           d="m 94.3328,5834.2482 c 0.4675,7.8482 -10.6277,8.5187 -15.1141,12.344 -2.592,2.2102 -1.7151,2.9764 -3.1431,6.0044 -6.9791,-9.0089 4.9411,-24.8603 18.2572,-18.3484 z"
           style="fill:#fafafa;fill-rule:evenodd"
           id="path5001" />
      </g>
      <text
         x="395.4523"
         y="5973.4575"
         id="text5006">
        <tspan
           font-size="477.0000"
           id="tspan5004"
           style="font-size:477px;font-family:Magneto;fill:#000200">R</tspan>
      </text>
      <text
         x="724.92041"
         y="5968.7085"
         id="text5010">
        <tspan
           font-size="342.0000"
           id="tspan5008"
           style="font-size:342px;font-family:Magneto;fill:#000200">ojas</tspan>
      </text>
      <text
         x="1035.4224"
         y="6038.271"
         id="text5014">
        <tspan
           font-size="150.0000"
           id="tspan5012"
           style="font-size:150px;font-family:Magneto;fill:#000200">Sport</tspan>
      </text>
    </g>
  </g>
</svg>
