<?xml version="1.0" encoding="iso-8859-1"?>
<!-- Generator: Adobe Illustrator 16.0.0, SVG Export Plug-In . SVG Version: 6.00 Build 0)  -->
<!DOCTYPE svg PUBLIC "-//W3C//DTD SVG 1.1//EN" "http://www.w3.org/Graphics/SVG/1.1/DTD/svg11.dtd">
<svg xmlns="http://www.w3.org/2000/svg" xmlns:xlink="http://www.w3.org/1999/xlink" version="1.1" id="Capa_1" x="0px" y="0px" width="512px" height="512px" viewBox="0 0 49.999 49.999" style="enable-background:new 0 0 49.999 49.999;" xml:space="preserve">
<g>
	<g>
		<path d="M40.484,8.726c-3.659-1.284-7.619,0.231-9.547,3.42l14.856,5.218C46.282,13.669,44.14,10.007,40.484,8.726z" fill="#FFFFFF"/>
		<path d="M35.155,23.91c3.653,1.281,7.614-0.234,9.544-3.423l-14.86-5.217C29.353,18.965,31.496,22.625,35.155,23.91z" fill="#FFFFFF"/>
		<path d="M25.839,6.394c-1.542-1.513-3.987-1.792-5.855-0.538c-1.867,1.248-2.544,3.617-1.732,5.623L25.839,6.394z" fill="#FFFFFF"/>
		<path d="M25.175,13.609c1.87-1.25,2.544-3.616,1.734-5.622l-7.592,5.082C20.865,14.584,23.311,14.86,25.175,13.609z" fill="#FFFFFF"/>
		<path d="M48.854,27.431c-1.904-2.562-5.544-3.097-8.104-1.19l-9.998,7.438c-0.226,0.167-0.414,0.364-0.607,0.556    c-0.214-1.414-0.722-2.804-1.617-4.037L16.8,14.033C13.797,9.89,7.975,8.959,3.828,11.965c-4.141,3.006-5.067,8.831-2.064,12.97    L13.49,41.104c3.003,4.145,8.831,5.07,12.975,2.068c1-0.729,1.804-1.623,2.417-2.611c0.178,0.425,0.393,0.842,0.68,1.229    c1.91,2.561,5.55,3.096,8.109,1.188l9.994-7.442C50.227,33.631,50.765,29.994,48.854,27.431z M16.36,39.021L4.637,22.854    c-1.859-2.558-1.285-6.158,1.276-8.018L24.38,40.299C21.816,42.158,18.226,41.586,16.36,39.021z M31.338,40.465    c-1.178-1.584-0.848-3.832,0.735-5.012l9.997-7.438c1.584-1.178,3.832-0.848,5.009,0.734L31.338,40.465z" fill="#FFFFFF"/>
	</g>
</g>
<g>
</g>
<g>
</g>
<g>
</g>
<g>
</g>
<g>
</g>
<g>
</g>
<g>
</g>
<g>
</g>
<g>
</g>
<g>
</g>
<g>
</g>
<g>
</g>
<g>
</g>
<g>
</g>
<g>
</g>
</svg>
